<svg xmlns="http://www.w3.org/2000/svg" viewBox="0 0 1600 900" width="1600" height="900" role="img">
<defs>
  <radialGradient id="glow-logistics" cx="62%" cy="46%" r="55%">
    <stop offset="0%" stop-color="#ee2f2e" stop-opacity=".62"/>
    <stop offset="32%" stop-color="#b81c1c" stop-opacity=".34"/>
    <stop offset="70%" stop-color="#4a0d12" stop-opacity=".16"/>
    <stop offset="100%" stop-color="#07080a" stop-opacity="0"/>
  </radialGradient>
  <radialGradient id="glow2-logistics" cx="86%" cy="22%" r="42%">
    <stop offset="0%" stop-color="#ff8d8b" stop-opacity=".26"/>
    <stop offset="100%" stop-color="#07080a" stop-opacity="0"/>
  </radialGradient>
  <linearGradient id="vign-logistics" x1="0" y1="0" x2="1" y2="0">
    <stop offset="0%" stop-color="#07080a" stop-opacity=".82"/>
    <stop offset="30%" stop-color="#07080a" stop-opacity=".34"/>
    <stop offset="62%" stop-color="#07080a" stop-opacity="0"/>
  </linearGradient>
  <linearGradient id="stroke-logistics" x1="0" y1="0" x2="1" y2="1">
    <stop offset="0%" stop-color="#ff8d8b"/>
    <stop offset="55%" stop-color="#ee2f2e"/>
    <stop offset="100%" stop-color="#b81c1c"/>
  </linearGradient>
  <filter id="soft-logistics" x="-30%" y="-30%" width="160%" height="160%">
    <feGaussianBlur stdDeviation="14"/>
  </filter>
  <filter id="bloom-logistics" x="-45%" y="-45%" width="190%" height="190%">
    <feGaussianBlur stdDeviation="9" result="b1"/>
    <feGaussianBlur stdDeviation="3" result="b2"/>
    <feMerge><feMergeNode in="b1"/><feMergeNode in="b2"/><feMergeNode in="SourceGraphic"/></feMerge>
  </filter>
</defs>
<rect width="1600" height="900" fill="#07080a"/>
<rect width="1600" height="900" fill="#12060a" opacity=".55"/>
<path d="M0 0V900M64 0V900M128 0V900M192 0V900M256 0V900M320 0V900M384 0V900M448 0V900M512 0V900M576 0V900M640 0V900M704 0V900M768 0V900M832 0V900M896 0V900M960 0V900M1024 0V900M1088 0V900M1152 0V900M1216 0V900M1280 0V900M1344 0V900M1408 0V900M1472 0V900M1536 0V900M1600 0V900M0 0H1600M0 64H1600M0 128H1600M0 192H1600M0 256H1600M0 320H1600M0 384H1600M0 448H1600M0 512H1600M0 576H1600M0 640H1600M0 704H1600M0 768H1600M0 832H1600M0 896H1600" stroke="#3d1a20" stroke-width="1" opacity=".85" fill="none"/>
<ellipse cx="1010" cy="440" rx="700" ry="520" fill="url(#glow-logistics)"/>
<rect width="1600" height="900" fill="url(#glow2-logistics)"/>
<g><line x1="834.56" y1="281.25" x2="746.12" y2="372.82" stroke="#ee2f2e" stroke-width="1.2" opacity="0.25"/><line x1="834.56" y1="281.25" x2="840.97" y2="279.52" stroke="#ee2f2e" stroke-width="1.2" opacity="0.51"/><line x1="834.56" y1="281.25" x2="674.62" y2="223.33" stroke="#ee2f2e" stroke-width="1.2" opacity="0.16"/><line x1="834.56" y1="281.25" x2="680.92" y2="313.56" stroke="#ee2f2e" stroke-width="1.2" opacity="0.19"/><line x1="834.56" y1="281.25" x2="784.49" y2="240.77" stroke="#ee2f2e" stroke-width="1.2" opacity="0.38"/><line x1="834.56" y1="281.25" x2="719.74" y2="187.11" stroke="#ee2f2e" stroke-width="1.2" opacity="0.21"/><line x1="834.56" y1="281.25" x2="760.22" y2="425.38" stroke="#ee2f2e" stroke-width="1.2" opacity="0.18"/><line x1="1558.69" y1="140.04" x2="1443.32" y2="233.84" stroke="#ee2f2e" stroke-width="1.2" opacity="0.21"/><line x1="1558.69" y1="140.04" x2="1530.52" y2="88.59" stroke="#ee2f2e" stroke-width="1.2" opacity="0.4"/><line x1="1558.69" y1="140.04" x2="1549" y2="55.98" stroke="#ee2f2e" stroke-width="1.2" opacity="0.34"/><line x1="746.12" y1="372.82" x2="840.97" y2="279.52" stroke="#ee2f2e" stroke-width="1.2" opacity="0.24"/><line x1="746.12" y1="372.82" x2="674.62" y2="223.33" stroke="#ee2f2e" stroke-width="1.2" opacity="0.17"/><line x1="746.12" y1="372.82" x2="680.92" y2="313.56" stroke="#ee2f2e" stroke-width="1.2" opacity="0.33"/><line x1="746.12" y1="372.82" x2="673.93" y2="384.33" stroke="#ee2f2e" stroke-width="1.2" opacity="0.37"/><line x1="746.12" y1="372.82" x2="731.55" y2="524.88" stroke="#ee2f2e" stroke-width="1.2" opacity="0.2"/><line x1="746.12" y1="372.82" x2="784.49" y2="240.77" stroke="#ee2f2e" stroke-width="1.2" opacity="0.23"/><line x1="746.12" y1="372.82" x2="719.74" y2="187.11" stroke="#ee2f2e" stroke-width="1.2" opacity="0.13"/><line x1="746.12" y1="372.82" x2="760.22" y2="425.38" stroke="#ee2f2e" stroke-width="1.2" opacity="0.41"/><line x1="746.12" y1="372.82" x2="660.09" y2="522.72" stroke="#ee2f2e" stroke-width="1.2" opacity="0.16"/><line x1="956.7" y1="46.39" x2="1052.66" y2="133.57" stroke="#ee2f2e" stroke-width="1.2" opacity="0.25"/><line x1="956.7" y1="46.39" x2="967.26" y2="145.14" stroke="#ee2f2e" stroke-width="1.2" opacity="0.31"/><line x1="1568.56" y1="371.75" x2="1504.36" y2="349.34" stroke="#ee2f2e" stroke-width="1.2" opacity="0.38"/><line x1="1568.56" y1="371.75" x2="1443.32" y2="233.84" stroke="#ee2f2e" stroke-width="1.2" opacity="0.13"/><line x1="1520.94" y1="841.18" x2="1501.86" y2="711.73" stroke="#ee2f2e" stroke-width="1.2" opacity="0.24"/><line x1="1520.94" y1="841.18" x2="1416.06" y2="791.03" stroke="#ee2f2e" stroke-width="1.2" opacity="0.28"/><line x1="840.97" y1="279.52" x2="674.62" y2="223.33" stroke="#ee2f2e" stroke-width="1.2" opacity="0.15"/><line x1="840.97" y1="279.52" x2="680.92" y2="313.56" stroke="#ee2f2e" stroke-width="1.2" opacity="0.18"/><line x1="840.97" y1="279.52" x2="784.49" y2="240.77" stroke="#ee2f2e" stroke-width="1.2" opacity="0.38"/><line x1="840.97" y1="279.52" x2="719.74" y2="187.11" stroke="#ee2f2e" stroke-width="1.2" opacity="0.2"/><line x1="840.97" y1="279.52" x2="967.26" y2="145.14" stroke="#ee2f2e" stroke-width="1.2" opacity="0.13"/><line x1="840.97" y1="279.52" x2="760.22" y2="425.38" stroke="#ee2f2e" stroke-width="1.2" opacity="0.17"/><line x1="973.06" y1="788.97" x2="1110.29" y2="789.76" stroke="#ee2f2e" stroke-width="1.2" opacity="0.23"/><line x1="973.06" y1="788.97" x2="1087.23" y2="797.61" stroke="#ee2f2e" stroke-width="1.2" opacity="0.28"/><line x1="973.06" y1="788.97" x2="943.88" y2="711.82" stroke="#ee2f2e" stroke-width="1.2" opacity="0.35"/><line x1="674.62" y1="223.33" x2="680.92" y2="313.56" stroke="#ee2f2e" stroke-width="1.2" opacity="0.33"/><line x1="674.62" y1="223.33" x2="673.93" y2="384.33" stroke="#ee2f2e" stroke-width="1.2" opacity="0.18"/><line x1="674.62" y1="223.33" x2="703.44" y2="100.75" stroke="#ee2f2e" stroke-width="1.2" opacity="0.25"/><line x1="674.62" y1="223.33" x2="784.49" y2="240.77" stroke="#ee2f2e" stroke-width="1.2" opacity="0.29"/><line x1="674.62" y1="223.33" x2="667.66" y2="113.46" stroke="#ee2f2e" stroke-width="1.2" opacity="0.29"/><line x1="674.62" y1="223.33" x2="719.74" y2="187.11" stroke="#ee2f2e" stroke-width="1.2" opacity="0.4"/><line x1="680.92" y1="313.56" x2="673.93" y2="384.33" stroke="#ee2f2e" stroke-width="1.2" opacity="0.37"/><line x1="680.92" y1="313.56" x2="784.49" y2="240.77" stroke="#ee2f2e" stroke-width="1.2" opacity="0.25"/><line x1="680.92" y1="313.56" x2="719.74" y2="187.11" stroke="#ee2f2e" stroke-width="1.2" opacity="0.24"/><line x1="680.92" y1="313.56" x2="760.22" y2="425.38" stroke="#ee2f2e" stroke-width="1.2" opacity="0.23"/><line x1="855.74" y1="534.51" x2="989.38" y2="587.72" stroke="#ee2f2e" stroke-width="1.2" opacity="0.22"/><line x1="855.74" y1="534.51" x2="731.55" y2="524.88" stroke="#ee2f2e" stroke-width="1.2" opacity="0.26"/><line x1="855.74" y1="534.51" x2="760.22" y2="425.38" stroke="#ee2f2e" stroke-width="1.2" opacity="0.21"/><line x1="855.74" y1="534.51" x2="893.57" y2="610.82" stroke="#ee2f2e" stroke-width="1.2" opacity="0.34"/><line x1="1413.85" y1="596.36" x2="1501.86" y2="711.73" stroke="#ee2f2e" stroke-width="1.2" opacity="0.21"/><line x1="1413.85" y1="596.36" x2="1364.18" y2="692.62" stroke="#ee2f2e" stroke-width="1.2" opacity="0.29"/><line x1="1413.85" y1="596.36" x2="1418.23" y2="600.88" stroke="#ee2f2e" stroke-width="1.2" opacity="0.51"/><line x1="1413.85" y1="596.36" x2="1318.11" y2="475.69" stroke="#ee2f2e" stroke-width="1.2" opacity="0.2"/><line x1="1413.85" y1="596.36" x2="1478.33" y2="552.68" stroke="#ee2f2e" stroke-width="1.2" opacity="0.36"/><line x1="1413.85" y1="596.36" x2="1304.27" y2="700.53" stroke="#ee2f2e" stroke-width="1.2" opacity="0.2"/><line x1="1501.86" y1="711.73" x2="1364.18" y2="692.62" stroke="#ee2f2e" stroke-width="1.2" opacity="0.23"/><line x1="1501.86" y1="711.73" x2="1418.23" y2="600.88" stroke="#ee2f2e" stroke-width="1.2" opacity="0.23"/><line x1="1501.86" y1="711.73" x2="1478.33" y2="552.68" stroke="#ee2f2e" stroke-width="1.2" opacity="0.18"/><line x1="1501.86" y1="711.73" x2="1416.06" y2="791.03" stroke="#ee2f2e" stroke-width="1.2" opacity="0.27"/><line x1="1364.18" y1="692.62" x2="1418.23" y2="600.88" stroke="#ee2f2e" stroke-width="1.2" opacity="0.3"/><line x1="1364.18" y1="692.62" x2="1200.39" y2="596.85" stroke="#ee2f2e" stroke-width="1.2" opacity="0.12"/><line x1="1364.18" y1="692.62" x2="1478.33" y2="552.68" stroke="#ee2f2e" stroke-width="1.2" opacity="0.14"/><line x1="1364.18" y1="692.62" x2="1304.27" y2="700.53" stroke="#ee2f2e" stroke-width="1.2" opacity="0.39"/><line x1="1364.18" y1="692.62" x2="1416.06" y2="791.03" stroke="#ee2f2e" stroke-width="1.2" opacity="0.29"/><line x1="1504.36" y1="349.34" x2="1443.32" y2="233.84" stroke="#ee2f2e" stroke-width="1.2" opacity="0.24"/><line x1="1119.65" y1="592.57" x2="989.38" y2="587.72" stroke="#ee2f2e" stroke-width="1.2" opacity="0.25"/><line x1="1119.65" y1="592.57" x2="1200.39" y2="596.85" stroke="#ee2f2e" stroke-width="1.2" opacity="0.35"/><line x1="1418.23" y1="600.88" x2="1318.11" y2="475.69" stroke="#ee2f2e" stroke-width="1.2" opacity="0.18"/><line x1="1418.23" y1="600.88" x2="1478.33" y2="552.68" stroke="#ee2f2e" stroke-width="1.2" opacity="0.36"/><line x1="1418.23" y1="600.88" x2="1304.27" y2="700.53" stroke="#ee2f2e" stroke-width="1.2" opacity="0.2"/><line x1="989.38" y1="587.72" x2="943.88" y2="711.82" stroke="#ee2f2e" stroke-width="1.2" opacity="0.24"/><line x1="989.38" y1="587.72" x2="893.57" y2="610.82" stroke="#ee2f2e" stroke-width="1.2" opacity="0.31"/><line x1="673.93" y1="384.33" x2="731.55" y2="524.88" stroke="#ee2f2e" stroke-width="1.2" opacity="0.2"/><line x1="673.93" y1="384.33" x2="784.49" y2="240.77" stroke="#ee2f2e" stroke-width="1.2" opacity="0.14"/><line x1="673.93" y1="384.33" x2="760.22" y2="425.38" stroke="#ee2f2e" stroke-width="1.2" opacity="0.32"/><line x1="673.93" y1="384.33" x2="660.09" y2="522.72" stroke="#ee2f2e" stroke-width="1.2" opacity="0.23"/><line x1="1110.29" y1="789.76" x2="1087.23" y2="797.61" stroke="#ee2f2e" stroke-width="1.2" opacity="0.47"/><line x1="1110.29" y1="789.76" x2="943.88" y2="711.82" stroke="#ee2f2e" stroke-width="1.2" opacity="0.13"/><line x1="1318.11" y1="475.69" x2="1225.42" y2="399.67" stroke="#ee2f2e" stroke-width="1.2" opacity="0.27"/><line x1="1318.11" y1="475.69" x2="1200.39" y2="596.85" stroke="#ee2f2e" stroke-width="1.2" opacity="0.16"/><line x1="1318.11" y1="475.69" x2="1478.33" y2="552.68" stroke="#ee2f2e" stroke-width="1.2" opacity="0.15"/><line x1="1200.39" y1="596.85" x2="1304.27" y2="700.53" stroke="#ee2f2e" stroke-width="1.2" opacity="0.21"/><line x1="731.55" y1="524.88" x2="743.64" y2="697.69" stroke="#ee2f2e" stroke-width="1.2" opacity="0.16"/><line x1="731.55" y1="524.88" x2="760.22" y2="425.38" stroke="#ee2f2e" stroke-width="1.2" opacity="0.3"/><line x1="731.55" y1="524.88" x2="893.57" y2="610.82" stroke="#ee2f2e" stroke-width="1.2" opacity="0.13"/><line x1="731.55" y1="524.88" x2="660.09" y2="522.72" stroke="#ee2f2e" stroke-width="1.2" opacity="0.37"/><line x1="703.44" y1="100.75" x2="784.49" y2="240.77" stroke="#ee2f2e" stroke-width="1.2" opacity="0.18"/><line x1="703.44" y1="100.75" x2="667.66" y2="113.46" stroke="#ee2f2e" stroke-width="1.2" opacity="0.44"/><line x1="703.44" y1="100.75" x2="719.74" y2="187.11" stroke="#ee2f2e" stroke-width="1.2" opacity="0.33"/><line x1="784.49" y1="240.77" x2="667.66" y2="113.46" stroke="#ee2f2e" stroke-width="1.2" opacity="0.16"/><line x1="784.49" y1="240.77" x2="719.74" y2="187.11" stroke="#ee2f2e" stroke-width="1.2" opacity="0.34"/><line x1="784.49" y1="240.77" x2="760.22" y2="425.38" stroke="#ee2f2e" stroke-width="1.2" opacity="0.13"/><line x1="1443.32" y1="233.84" x2="1341.42" y2="123.52" stroke="#ee2f2e" stroke-width="1.2" opacity="0.2"/><line x1="1443.32" y1="233.84" x2="1530.52" y2="88.59" stroke="#ee2f2e" stroke-width="1.2" opacity="0.16"/><line x1="667.66" y1="113.46" x2="719.74" y2="187.11" stroke="#ee2f2e" stroke-width="1.2" opacity="0.33"/><line x1="718.74" y1="721.33" x2="743.64" y2="697.69" stroke="#ee2f2e" stroke-width="1.2" opacity="0.45"/><line x1="718.74" y1="721.33" x2="625.43" y2="734.85" stroke="#ee2f2e" stroke-width="1.2" opacity="0.32"/><line x1="718.74" y1="721.33" x2="568.87" y2="683.51" stroke="#ee2f2e" stroke-width="1.2" opacity="0.19"/><line x1="1052.66" y1="133.57" x2="967.26" y2="145.14" stroke="#ee2f2e" stroke-width="1.2" opacity="0.34"/><line x1="1087.23" y1="797.61" x2="943.88" y2="711.82" stroke="#ee2f2e" stroke-width="1.2" opacity="0.17"/><line x1="943.88" y1="711.82" x2="893.57" y2="610.82" stroke="#ee2f2e" stroke-width="1.2" opacity="0.28"/><line x1="743.64" y1="697.69" x2="893.57" y2="610.82" stroke="#ee2f2e" stroke-width="1.2" opacity="0.16"/><line x1="743.64" y1="697.69" x2="625.43" y2="734.85" stroke="#ee2f2e" stroke-width="1.2" opacity="0.26"/><line x1="743.64" y1="697.69" x2="568.87" y2="683.51" stroke="#ee2f2e" stroke-width="1.2" opacity="0.15"/><line x1="760.22" y1="425.38" x2="660.09" y2="522.72" stroke="#ee2f2e" stroke-width="1.2" opacity="0.23"/><line x1="1530.52" y1="88.59" x2="1549" y2="55.98" stroke="#ee2f2e" stroke-width="1.2" opacity="0.44"/><line x1="1304.27" y1="700.53" x2="1416.06" y2="791.03" stroke="#ee2f2e" stroke-width="1.2" opacity="0.22"/><line x1="625.43" y1="734.85" x2="568.87" y2="683.51" stroke="#ee2f2e" stroke-width="1.2" opacity="0.36"/><line x1="568.87" y1="683.51" x2="660.09" y2="522.72" stroke="#ee2f2e" stroke-width="1.2" opacity="0.13"/><circle cx="834.56" cy="281.25" r="4.35" fill="#ff8d8b" opacity="0.5"/><circle cx="1558.69" cy="140.04" r="4.18" fill="#ff8d8b" opacity="0.91"/><circle cx="746.12" cy="372.82" r="4.13" fill="#ff8d8b" opacity="0.74"/><circle cx="956.7" cy="46.39" r="3.76" fill="#ff8d8b" opacity="0.9"/><circle cx="1568.56" cy="371.75" r="3.45" fill="#ff8d8b" opacity="0.69"/><circle cx="1520.94" cy="841.18" r="3.52" fill="#ff8d8b" opacity="0.55"/><circle cx="840.97" cy="279.52" r="3.3" fill="#fff" opacity="0.85"/><circle cx="973.06" cy="788.97" r="3.97" fill="#ff8d8b" opacity="0.83"/><circle cx="674.62" cy="223.33" r="3.56" fill="#ff8d8b" opacity="0.95"/><circle cx="680.92" cy="313.56" r="3.53" fill="#fff" opacity="0.46"/><circle cx="855.74" cy="534.51" r="4.56" fill="#ff8d8b" opacity="0.58"/><circle cx="1413.85" cy="596.36" r="5.3" fill="#ff8d8b" opacity="0.89"/><circle cx="1501.86" cy="711.73" r="3.73" fill="#ff8d8b" opacity="0.58"/><circle cx="1364.18" cy="692.62" r="4.52" fill="#fff" opacity="0.93"/><circle cx="1504.36" cy="349.34" r="5.34" fill="#fff" opacity="0.8"/><circle cx="1119.65" cy="592.57" r="5.11" fill="#ff8d8b" opacity="0.79"/><circle cx="1418.23" cy="600.88" r="3.46" fill="#ff8d8b" opacity="0.68"/><circle cx="989.38" cy="587.72" r="3.92" fill="#ff8d8b" opacity="0.77"/><circle cx="673.93" cy="384.33" r="4.19" fill="#ff8d8b" opacity="0.92"/><circle cx="1110.29" cy="789.76" r="4.98" fill="#ff8d8b" opacity="0.72"/><circle cx="1318.11" cy="475.69" r="4.01" fill="#ff8d8b" opacity="0.61"/><circle cx="1225.42" cy="399.67" r="5.25" fill="#fff" opacity="0.59"/><circle cx="1200.39" cy="596.85" r="3.25" fill="#ff8d8b" opacity="0.56"/><circle cx="731.55" cy="524.88" r="2.39" fill="#fff" opacity="0.75"/><circle cx="703.44" cy="100.75" r="4.55" fill="#ff8d8b" opacity="0.58"/><circle cx="784.49" cy="240.77" r="2.12" fill="#ff8d8b" opacity="0.61"/><circle cx="1478.33" cy="552.68" r="3.09" fill="#fff" opacity="0.92"/><circle cx="1443.32" cy="233.84" r="3.67" fill="#ff8d8b" opacity="0.69"/><circle cx="667.66" cy="113.46" r="2.38" fill="#ff8d8b" opacity="0.62"/><circle cx="1341.42" cy="123.52" r="4.13" fill="#fff" opacity="0.64"/><circle cx="718.74" cy="721.33" r="2.29" fill="#ff8d8b" opacity="0.85"/><circle cx="719.74" cy="187.11" r="4.17" fill="#ff8d8b" opacity="0.84"/><circle cx="1052.66" cy="133.57" r="2.48" fill="#ff8d8b" opacity="0.91"/><circle cx="967.26" cy="145.14" r="2.07" fill="#ff8d8b" opacity="0.54"/><circle cx="1087.23" cy="797.61" r="2.2" fill="#ff8d8b" opacity="0.79"/><circle cx="943.88" cy="711.82" r="2.42" fill="#ff8d8b" opacity="0.47"/><circle cx="743.64" cy="697.69" r="2.63" fill="#ff8d8b" opacity="0.95"/><circle cx="760.22" cy="425.38" r="4.69" fill="#ff8d8b" opacity="0.53"/><circle cx="1530.52" cy="88.59" r="3.99" fill="#fff" opacity="0.88"/><circle cx="1304.27" cy="700.53" r="3.22" fill="#ff8d8b" opacity="0.72"/><circle cx="1549" cy="55.98" r="4.42" fill="#ff8d8b" opacity="0.69"/><circle cx="1416.06" cy="791.03" r="4.21" fill="#ff8d8b" opacity="0.49"/><circle cx="893.57" cy="610.82" r="4" fill="#ff8d8b" opacity="0.52"/><circle cx="625.43" cy="734.85" r="4.25" fill="#fff" opacity="0.57"/><circle cx="568.87" cy="683.51" r="2.57" fill="#ff8d8b" opacity="0.52"/><circle cx="660.09" cy="522.72" r="4.01" fill="#fff" opacity="0.61"/></g>
<g>
    <line x1="1346" y1="430" x2="1360" y2="430" stroke="#ee2f2e" stroke-width="2.2" opacity="0.68"/><line x1="1343.17" y1="462.3" x2="1349.08" y2="463.34" stroke="#ee2f2e" stroke-width="1.3" opacity="0.38"/><line x1="1334.78" y1="493.62" x2="1340.42" y2="495.67" stroke="#ee2f2e" stroke-width="1.3" opacity="0.38"/><line x1="1321.08" y1="523" x2="1333.21" y2="530" stroke="#ee2f2e" stroke-width="2.2" opacity="0.68"/><line x1="1302.48" y1="549.56" x2="1307.08" y2="553.42" stroke="#ee2f2e" stroke-width="1.3" opacity="0.38"/><line x1="1279.56" y1="572.48" x2="1283.42" y2="577.08" stroke="#ee2f2e" stroke-width="1.3" opacity="0.38"/><line x1="1253" y1="591.08" x2="1260" y2="603.21" stroke="#ee2f2e" stroke-width="2.2" opacity="0.68"/><line x1="1223.62" y1="604.78" x2="1225.67" y2="610.42" stroke="#ee2f2e" stroke-width="1.3" opacity="0.38"/><line x1="1192.3" y1="613.17" x2="1193.34" y2="619.08" stroke="#ee2f2e" stroke-width="1.3" opacity="0.38"/><line x1="1160" y1="616" x2="1160" y2="630" stroke="#ee2f2e" stroke-width="2.2" opacity="0.68"/><line x1="1127.7" y1="613.17" x2="1126.66" y2="619.08" stroke="#ee2f2e" stroke-width="1.3" opacity="0.38"/><line x1="1096.38" y1="604.78" x2="1094.33" y2="610.42" stroke="#ee2f2e" stroke-width="1.3" opacity="0.38"/><line x1="1067" y1="591.08" x2="1060" y2="603.21" stroke="#ee2f2e" stroke-width="2.2" opacity="0.68"/><line x1="1040.44" y1="572.48" x2="1036.58" y2="577.08" stroke="#ee2f2e" stroke-width="1.3" opacity="0.38"/><line x1="1017.52" y1="549.56" x2="1012.92" y2="553.42" stroke="#ee2f2e" stroke-width="1.3" opacity="0.38"/><line x1="998.92" y1="523" x2="986.79" y2="530" stroke="#ee2f2e" stroke-width="2.2" opacity="0.68"/><line x1="985.22" y1="493.62" x2="979.58" y2="495.67" stroke="#ee2f2e" stroke-width="1.3" opacity="0.38"/><line x1="976.83" y1="462.3" x2="970.92" y2="463.34" stroke="#ee2f2e" stroke-width="1.3" opacity="0.38"/><line x1="974" y1="430" x2="960" y2="430" stroke="#ee2f2e" stroke-width="2.2" opacity="0.68"/><line x1="976.83" y1="397.7" x2="970.92" y2="396.66" stroke="#ee2f2e" stroke-width="1.3" opacity="0.38"/><line x1="985.22" y1="366.38" x2="979.58" y2="364.33" stroke="#ee2f2e" stroke-width="1.3" opacity="0.38"/><line x1="998.92" y1="337" x2="986.79" y2="330" stroke="#ee2f2e" stroke-width="2.2" opacity="0.68"/><line x1="1017.52" y1="310.44" x2="1012.92" y2="306.58" stroke="#ee2f2e" stroke-width="1.3" opacity="0.38"/><line x1="1040.44" y1="287.52" x2="1036.58" y2="282.92" stroke="#ee2f2e" stroke-width="1.3" opacity="0.38"/><line x1="1067" y1="268.92" x2="1060" y2="256.79" stroke="#ee2f2e" stroke-width="2.2" opacity="0.68"/><line x1="1096.38" y1="255.22" x2="1094.33" y2="249.58" stroke="#ee2f2e" stroke-width="1.3" opacity="0.38"/><line x1="1127.7" y1="246.83" x2="1126.66" y2="240.92" stroke="#ee2f2e" stroke-width="1.3" opacity="0.38"/><line x1="1160" y1="244" x2="1160" y2="230" stroke="#ee2f2e" stroke-width="2.2" opacity="0.68"/><line x1="1192.3" y1="246.83" x2="1193.34" y2="240.92" stroke="#ee2f2e" stroke-width="1.3" opacity="0.38"/><line x1="1223.62" y1="255.22" x2="1225.67" y2="249.58" stroke="#ee2f2e" stroke-width="1.3" opacity="0.38"/><line x1="1253" y1="268.92" x2="1260" y2="256.79" stroke="#ee2f2e" stroke-width="2.2" opacity="0.68"/><line x1="1279.56" y1="287.52" x2="1283.42" y2="282.92" stroke="#ee2f2e" stroke-width="1.3" opacity="0.38"/><line x1="1302.48" y1="310.44" x2="1307.08" y2="306.58" stroke="#ee2f2e" stroke-width="1.3" opacity="0.38"/><line x1="1321.08" y1="337" x2="1333.21" y2="330" stroke="#ee2f2e" stroke-width="2.2" opacity="0.68"/><line x1="1334.78" y1="366.38" x2="1340.42" y2="364.33" stroke="#ee2f2e" stroke-width="1.3" opacity="0.38"/><line x1="1343.17" y1="397.7" x2="1349.08" y2="396.66" stroke="#ee2f2e" stroke-width="1.3" opacity="0.38"/>
    <path d="M1237.15 271.81 A 176 176 0 0 1 1286.6 552.26" fill="none" stroke="#ee2f2e" stroke-width="2.8" opacity="0.8"/><path d="M1082.85 588.19 A 176 176 0 0 1 1033.4 307.74" fill="none" stroke="#ee2f2e" stroke-width="2.8" opacity="0.8"/>
    <path d="M1345.42 528.59 A 210 210 0 0 1 1160 640" fill="none" stroke="#ee2f2e" stroke-width="1.8" opacity="0.34"/><path d="M974.58 331.41 A 210 210 0 0 1 1160 220" fill="none" stroke="#ee2f2e" stroke-width="1.8" opacity="0.34"/>
    <line x1="944" y1="430" x2="1142" y2="430" stroke="#ee2f2e" stroke-width="1.5" opacity=".5"/>
    <line x1="1178" y1="430" x2="1376" y2="430" stroke="#ee2f2e" stroke-width="1.5" opacity=".5"/>
    <line x1="1160" y1="214" x2="1160" y2="412" stroke="#ee2f2e" stroke-width="1.5" opacity=".5"/>
    <line x1="1160" y1="448" x2="1160" y2="646" stroke="#ee2f2e" stroke-width="1.5" opacity=".5"/>
  </g>
<g>
      <g opacity="0.75"><rect x="660" y="700" width="72" height="22" rx="3" fill="none" stroke="#b81c1c" stroke-width="2.6"/><rect x="744" y="700" width="72" height="22" rx="3" fill="none" stroke="#b81c1c" stroke-width="2.6"/><rect x="828" y="700" width="72" height="22" rx="3" fill="none" stroke="#b81c1c" stroke-width="2.6"/><rect x="912" y="700" width="72" height="22" rx="3" fill="none" stroke="#b81c1c" stroke-width="2.6"/><rect x="996" y="700" width="72" height="22" rx="3" fill="none" stroke="#b81c1c" stroke-width="2.6"/><rect x="1080" y="700" width="72" height="22" rx="3" fill="none" stroke="#b81c1c" stroke-width="2.6"/><rect x="1164" y="700" width="72" height="22" rx="3" fill="none" stroke="#b81c1c" stroke-width="2.6"/><rect x="1248" y="700" width="72" height="22" rx="3" fill="none" stroke="#b81c1c" stroke-width="2.6"/><rect x="1332" y="700" width="72" height="22" rx="3" fill="none" stroke="#b81c1c" stroke-width="2.6"/><rect x="660" y="730" width="72" height="22" rx="3" fill="none" stroke="#b81c1c" stroke-width="2.6"/><rect x="744" y="730" width="72" height="22" rx="3" fill="none" stroke="#b81c1c" stroke-width="2.6"/><rect x="828" y="730" width="72" height="22" rx="3" fill="none" stroke="#b81c1c" stroke-width="2.6"/><rect x="912" y="730" width="72" height="22" rx="3" fill="none" stroke="#b81c1c" stroke-width="2.6"/><rect x="996" y="730" width="72" height="22" rx="3" fill="none" stroke="#b81c1c" stroke-width="2.6"/><rect x="1080" y="730" width="72" height="22" rx="3" fill="none" stroke="#b81c1c" stroke-width="2.6"/><rect x="1164" y="730" width="72" height="22" rx="3" fill="none" stroke="#b81c1c" stroke-width="2.6"/><rect x="1248" y="730" width="72" height="22" rx="3" fill="none" stroke="#b81c1c" stroke-width="2.6"/><rect x="1332" y="730" width="72" height="22" rx="3" fill="none" stroke="#b81c1c" stroke-width="2.6"/><rect x="660" y="760" width="72" height="22" rx="3" fill="none" stroke="#b81c1c" stroke-width="2.6"/><rect x="744" y="760" width="72" height="22" rx="3" fill="none" stroke="#b81c1c" stroke-width="2.6"/><rect x="828" y="760" width="72" height="22" rx="3" fill="none" stroke="#b81c1c" stroke-width="2.6"/><rect x="912" y="760" width="72" height="22" rx="3" fill="none" stroke="#b81c1c" stroke-width="2.6"/><rect x="996" y="760" width="72" height="22" rx="3" fill="none" stroke="#b81c1c" stroke-width="2.6"/><rect x="1080" y="760" width="72" height="22" rx="3" fill="none" stroke="#b81c1c" stroke-width="2.6"/><rect x="1164" y="760" width="72" height="22" rx="3" fill="none" stroke="#b81c1c" stroke-width="2.6"/><rect x="1248" y="760" width="72" height="22" rx="3" fill="none" stroke="#b81c1c" stroke-width="2.6"/><rect x="1332" y="760" width="72" height="22" rx="3" fill="none" stroke="#b81c1c" stroke-width="2.6"/><rect x="660" y="790" width="72" height="22" rx="3" fill="none" stroke="#b81c1c" stroke-width="2.6"/><rect x="744" y="790" width="72" height="22" rx="3" fill="none" stroke="#b81c1c" stroke-width="2.6"/><rect x="828" y="790" width="72" height="22" rx="3" fill="none" stroke="#b81c1c" stroke-width="2.6"/><rect x="912" y="790" width="72" height="22" rx="3" fill="none" stroke="#b81c1c" stroke-width="2.6"/><rect x="996" y="790" width="72" height="22" rx="3" fill="none" stroke="#b81c1c" stroke-width="2.6"/><rect x="1080" y="790" width="72" height="22" rx="3" fill="none" stroke="#b81c1c" stroke-width="2.6"/><rect x="1164" y="790" width="72" height="22" rx="3" fill="none" stroke="#b81c1c" stroke-width="2.6"/><rect x="1248" y="790" width="72" height="22" rx="3" fill="none" stroke="#b81c1c" stroke-width="2.6"/><rect x="1332" y="790" width="72" height="22" rx="3" fill="none" stroke="#b81c1c" stroke-width="2.6"/><rect x="660" y="820" width="72" height="22" rx="3" fill="none" stroke="#b81c1c" stroke-width="2.6"/><rect x="744" y="820" width="72" height="22" rx="3" fill="none" stroke="#b81c1c" stroke-width="2.6"/><rect x="828" y="820" width="72" height="22" rx="3" fill="none" stroke="#b81c1c" stroke-width="2.6"/><rect x="912" y="820" width="72" height="22" rx="3" fill="none" stroke="#b81c1c" stroke-width="2.6"/><rect x="996" y="820" width="72" height="22" rx="3" fill="none" stroke="#b81c1c" stroke-width="2.6"/><rect x="1080" y="820" width="72" height="22" rx="3" fill="none" stroke="#b81c1c" stroke-width="2.6"/><rect x="1164" y="820" width="72" height="22" rx="3" fill="none" stroke="#b81c1c" stroke-width="2.6"/><rect x="1248" y="820" width="72" height="22" rx="3" fill="none" stroke="#b81c1c" stroke-width="2.6"/><rect x="1332" y="820" width="72" height="22" rx="3" fill="none" stroke="#b81c1c" stroke-width="2.6"/></g>
      <polyline points="680 700 820 560 1000 610 1160 430 1350 470" fill="none" stroke="url(#stroke-logistics)" stroke-width="6.4" stroke-linecap="round" stroke-linejoin="round" stroke-dasharray="14 11" filter="url(#bloom-logistics)"/>
      <g><circle cx="680" cy="700" r="8" fill="#ff8d8b" filter="url(#bloom-logistics)"/><circle cx="680" cy="700" r="20" fill="none" stroke="#ee2f2e" stroke-width="3.0" opacity="0.99"/></g><g><circle cx="820" cy="560" r="8" fill="#ff8d8b" filter="url(#bloom-logistics)"/><circle cx="820" cy="560" r="20" fill="none" stroke="#ee2f2e" stroke-width="3.0" opacity="0.99"/></g><g><circle cx="1000" cy="610" r="8" fill="#ff8d8b" filter="url(#bloom-logistics)"/><circle cx="1000" cy="610" r="20" fill="none" stroke="#ee2f2e" stroke-width="3.0" opacity="0.99"/></g><g><circle cx="1160" cy="430" r="8" fill="#ff8d8b" filter="url(#bloom-logistics)"/><circle cx="1160" cy="430" r="20" fill="none" stroke="#ee2f2e" stroke-width="3.0" opacity="0.99"/></g><g><circle cx="1350" cy="470" r="13" fill="#fff" filter="url(#bloom-logistics)"/><circle cx="1350" cy="470" r="30" fill="none" stroke="#ee2f2e" stroke-width="3.0" opacity="0.99"/></g>
      <path d="M1140 250 h150 l40 44 h44 v58 h-234z" fill="none" stroke="#ee2f2e" stroke-width="4.0" opacity="1"/>
      <circle cx="1188" cy="352" r="15" fill="none" stroke="#ee2f2e" stroke-width="4.0" opacity="1"/>
      <circle cx="1330" cy="352" r="15" fill="none" stroke="#ee2f2e" stroke-width="4.0" opacity="1"/></g>
<circle cx="1526.98" cy="7.25" r="1.68" fill="#ff8d8b" opacity="0.19"/><circle cx="54.18" cy="690.12" r="2.36" fill="#ff8d8b" opacity="0.25"/><circle cx="1597" cy="226.64" r="2.12" fill="#ff8d8b" opacity="0.41"/><circle cx="401.06" cy="86.55" r="0.74" fill="#ff8d8b" opacity="0.49"/><circle cx="418.71" cy="61.41" r="0.93" fill="#ff8d8b" opacity="0.21"/><circle cx="665.85" cy="838.12" r="2.26" fill="#ff8d8b" opacity="0.34"/><circle cx="1233" cy="838.31" r="2.07" fill="#ff8d8b" opacity="0.51"/><circle cx="1328.76" cy="468.68" r="1.27" fill="#fff" opacity="0.4"/><circle cx="1547.34" cy="151.71" r="1.1" fill="#fff" opacity="0.43"/><circle cx="616.07" cy="642.44" r="2.27" fill="#ff8d8b" opacity="0.22"/><circle cx="685.26" cy="776.54" r="1.63" fill="#ff8d8b" opacity="0.56"/><circle cx="695.71" cy="786.73" r="2.38" fill="#ff8d8b" opacity="0.5"/><circle cx="676.21" cy="548.58" r="1.3" fill="#ff8d8b" opacity="0.6"/><circle cx="148.71" cy="358.54" r="1.76" fill="#ff8d8b" opacity="0.51"/><circle cx="574.89" cy="833.3" r="2.1" fill="#fff" opacity="0.2"/><circle cx="171.54" cy="526.58" r="1.24" fill="#fff" opacity="0.32"/><circle cx="1185.49" cy="800" r="0.72" fill="#ff8d8b" opacity="0.54"/><circle cx="358.4" cy="773.98" r="2.36" fill="#ff8d8b" opacity="0.54"/><circle cx="1521.78" cy="342.06" r="0.79" fill="#ff8d8b" opacity="0.3"/><circle cx="370.88" cy="457.64" r="2.16" fill="#ff8d8b" opacity="0.55"/><circle cx="211.67" cy="162.37" r="1.62" fill="#ff8d8b" opacity="0.27"/><circle cx="1140.57" cy="857.55" r="1.26" fill="#ff8d8b" opacity="0.47"/><circle cx="471.08" cy="562.89" r="2.34" fill="#ff8d8b" opacity="0.61"/><circle cx="388.04" cy="345.7" r="2.39" fill="#ff8d8b" opacity="0.51"/><circle cx="362.16" cy="33.43" r="2.04" fill="#ff8d8b" opacity="0.57"/><circle cx="711.09" cy="888.64" r="0.82" fill="#ff8d8b" opacity="0.31"/><circle cx="1125.41" cy="154.61" r="1.53" fill="#ff8d8b" opacity="0.58"/><circle cx="340.43" cy="768.67" r="1.58" fill="#ff8d8b" opacity="0.37"/><circle cx="775.87" cy="500.96" r="2.37" fill="#ff8d8b" opacity="0.31"/><circle cx="579.33" cy="599.3" r="2.09" fill="#ff8d8b" opacity="0.28"/><circle cx="1594.7" cy="848.39" r="2.4" fill="#ff8d8b" opacity="0.46"/><circle cx="1480.52" cy="131.11" r="2.02" fill="#ff8d8b" opacity="0.19"/><circle cx="1239.33" cy="748.17" r="1.91" fill="#ff8d8b" opacity="0.27"/><circle cx="307.77" cy="600.41" r="1.93" fill="#ff8d8b" opacity="0.53"/><circle cx="1420.04" cy="621.84" r="1.16" fill="#ff8d8b" opacity="0.26"/><circle cx="1160.37" cy="214.88" r="2.13" fill="#ff8d8b" opacity="0.23"/><circle cx="193.12" cy="248.57" r="1.15" fill="#fff" opacity="0.44"/><circle cx="1043.3" cy="710.55" r="1.17" fill="#ff8d8b" opacity="0.37"/><circle cx="252.3" cy="566.93" r="1.57" fill="#ff8d8b" opacity="0.54"/><circle cx="64.92" cy="78.62" r="2.08" fill="#ff8d8b" opacity="0.28"/><circle cx="1265.67" cy="527.41" r="1.21" fill="#fff" opacity="0.3"/><circle cx="1276.9" cy="232.53" r="0.64" fill="#ff8d8b" opacity="0.56"/><circle cx="1400.02" cy="738.48" r="1.72" fill="#ff8d8b" opacity="0.5"/><circle cx="215.48" cy="163.84" r="2.08" fill="#ff8d8b" opacity="0.55"/><circle cx="174.34" cy="155.39" r="1.26" fill="#ff8d8b" opacity="0.28"/><circle cx="146.44" cy="823.75" r="0.93" fill="#fff" opacity="0.53"/><circle cx="278.72" cy="747.44" r="2.21" fill="#ff8d8b" opacity="0.26"/><circle cx="803.85" cy="246.8" r="0.87" fill="#ff8d8b" opacity="0.41"/><circle cx="691.73" cy="125.08" r="2.36" fill="#ff8d8b" opacity="0.18"/><circle cx="229.15" cy="190.35" r="0.61" fill="#ff8d8b" opacity="0.19"/><circle cx="562.39" cy="24.01" r="1" fill="#ff8d8b" opacity="0.18"/><circle cx="480.09" cy="363.61" r="1.91" fill="#fff" opacity="0.33"/><circle cx="1473.41" cy="620.81" r="1.55" fill="#ff8d8b" opacity="0.6"/><circle cx="356.79" cy="414.78" r="1.88" fill="#ff8d8b" opacity="0.57"/><circle cx="124.17" cy="602.32" r="0.84" fill="#ff8d8b" opacity="0.54"/><circle cx="107.06" cy="566.37" r="1.48" fill="#ff8d8b" opacity="0.45"/><circle cx="587.85" cy="696.87" r="1.05" fill="#ff8d8b" opacity="0.33"/><circle cx="1365.26" cy="736.38" r="1.61" fill="#ff8d8b" opacity="0.41"/><circle cx="397.93" cy="10.49" r="0.78" fill="#fff" opacity="0.2"/><circle cx="34.42" cy="181.1" r="1.56" fill="#ff8d8b" opacity="0.37"/><circle cx="744.84" cy="88.04" r="1.56" fill="#ff8d8b" opacity="0.59"/><circle cx="1556.47" cy="767.42" r="0.84" fill="#ff8d8b" opacity="0.53"/><circle cx="85.45" cy="713.57" r="2.3" fill="#ff8d8b" opacity="0.23"/><circle cx="1292.99" cy="424.63" r="1.7" fill="#ff8d8b" opacity="0.22"/><circle cx="770.54" cy="836.24" r="2.14" fill="#ff8d8b" opacity="0.45"/><circle cx="782.87" cy="187.47" r="0.66" fill="#ff8d8b" opacity="0.41"/><circle cx="818.01" cy="701.87" r="1.59" fill="#ff8d8b" opacity="0.45"/><circle cx="271.51" cy="510.64" r="2.15" fill="#ff8d8b" opacity="0.36"/><circle cx="967.03" cy="140.97" r="1.42" fill="#ff8d8b" opacity="0.23"/><circle cx="948.01" cy="334.43" r="2.15" fill="#ff8d8b" opacity="0.47"/><circle cx="673.25" cy="112.06" r="1.97" fill="#ff8d8b" opacity="0.4"/><circle cx="1254.58" cy="744.32" r="2.39" fill="#ff8d8b" opacity="0.17"/><circle cx="311.06" cy="59.73" r="1.69" fill="#ff8d8b" opacity="0.45"/><circle cx="359.26" cy="451.49" r="2.01" fill="#ff8d8b" opacity="0.55"/><circle cx="1140.76" cy="884.87" r="1.32" fill="#fff" opacity="0.53"/><circle cx="774.89" cy="359.35" r="1.54" fill="#ff8d8b" opacity="0.2"/><circle cx="1477.46" cy="472.74" r="1.35" fill="#fff" opacity="0.23"/><circle cx="1415.06" cy="611.95" r="0.76" fill="#ff8d8b" opacity="0.29"/><circle cx="337.85" cy="836" r="1.5" fill="#ff8d8b" opacity="0.28"/><circle cx="217.65" cy="602.27" r="1.87" fill="#fff" opacity="0.23"/><circle cx="1560.6" cy="430.97" r="1.71" fill="#ff8d8b" opacity="0.54"/><circle cx="1376.29" cy="568" r="0.81" fill="#ff8d8b" opacity="0.27"/><circle cx="664.68" cy="601.19" r="1.9" fill="#ff8d8b" opacity="0.5"/><circle cx="540.56" cy="73.32" r="1" fill="#ff8d8b" opacity="0.59"/><circle cx="729.53" cy="4.38" r="1.01" fill="#fff" opacity="0.6"/><circle cx="1305.56" cy="243.05" r="1.99" fill="#ff8d8b" opacity="0.35"/><circle cx="949.97" cy="672.61" r="1.51" fill="#ff8d8b" opacity="0.38"/><circle cx="522.88" cy="664.24" r="1.66" fill="#ff8d8b" opacity="0.61"/><circle cx="712.24" cy="793.05" r="0.7" fill="#ff8d8b" opacity="0.58"/><circle cx="1168.65" cy="402.09" r="2.07" fill="#ff8d8b" opacity="0.46"/><circle cx="598.54" cy="136.25" r="1.13" fill="#ff8d8b" opacity="0.58"/><circle cx="367.66" cy="260.5" r="0.93" fill="#ff8d8b" opacity="0.48"/><circle cx="1469.65" cy="835.91" r="1.58" fill="#ff8d8b" opacity="0.2"/><circle cx="1576.64" cy="569.83" r="1.63" fill="#ff8d8b" opacity="0.47"/><circle cx="42.38" cy="833.41" r="1.24" fill="#ff8d8b" opacity="0.39"/><circle cx="1270.06" cy="96.64" r="2.2" fill="#ff8d8b" opacity="0.49"/><circle cx="90.94" cy="63.46" r="0.89" fill="#ff8d8b" opacity="0.21"/><circle cx="1076.75" cy="77.85" r="0.76" fill="#fff" opacity="0.45"/><circle cx="1110.03" cy="674.57" r="1.42" fill="#ff8d8b" opacity="0.38"/><circle cx="594.13" cy="201.12" r="0.98" fill="#ff8d8b" opacity="0.34"/><circle cx="1144.26" cy="401.76" r="1.41" fill="#ff8d8b" opacity="0.49"/><circle cx="1391.92" cy="849.13" r="0.95" fill="#fff" opacity="0.53"/><circle cx="1377.1" cy="174.2" r="1.67" fill="#ff8d8b" opacity="0.23"/><circle cx="647.2" cy="552.11" r="1.4" fill="#fff" opacity="0.25"/><circle cx="115.5" cy="489.89" r="1.42" fill="#ff8d8b" opacity="0.5"/><circle cx="774.35" cy="332.52" r="1.09" fill="#ff8d8b" opacity="0.3"/><circle cx="1473.17" cy="429.08" r="1.65" fill="#ff8d8b" opacity="0.34"/><circle cx="137.36" cy="229.29" r="1.89" fill="#ff8d8b" opacity="0.56"/><circle cx="1044.69" cy="451.75" r="1" fill="#ff8d8b" opacity="0.55"/><circle cx="226.54" cy="125.52" r="2.13" fill="#ff8d8b" opacity="0.31"/><circle cx="703.11" cy="31.54" r="1.68" fill="#ff8d8b" opacity="0.55"/><circle cx="1420.19" cy="385.89" r="1.98" fill="#ff8d8b" opacity="0.45"/><circle cx="1398.87" cy="843.43" r="1.1" fill="#ff8d8b" opacity="0.34"/><circle cx="985.61" cy="331.7" r="1.07" fill="#ff8d8b" opacity="0.47"/><circle cx="1100.09" cy="620.74" r="1.38" fill="#ff8d8b" opacity="0.54"/><circle cx="938.12" cy="159.73" r="0.65" fill="#ff8d8b" opacity="0.45"/><circle cx="1075.26" cy="445.64" r="0.95" fill="#ff8d8b" opacity="0.18"/><circle cx="481.89" cy="394.47" r="1.11" fill="#ff8d8b" opacity="0.26"/><circle cx="1224.85" cy="39.96" r="1.75" fill="#ff8d8b" opacity="0.19"/><circle cx="348.83" cy="703.51" r="1.48" fill="#ff8d8b" opacity="0.58"/><circle cx="295" cy="707.06" r="0.8" fill="#ff8d8b" opacity="0.29"/><circle cx="1050.06" cy="776.03" r="1.31" fill="#fff" opacity="0.3"/><circle cx="1443.14" cy="544.16" r="0.91" fill="#ff8d8b" opacity="0.49"/><circle cx="1082.51" cy="770.88" r="1.41" fill="#fff" opacity="0.23"/><circle cx="1051.8" cy="806.48" r="2.19" fill="#ff8d8b" opacity="0.38"/><circle cx="1526.54" cy="63.74" r="1.24" fill="#ff8d8b" opacity="0.29"/><circle cx="1154.34" cy="146.93" r="0.67" fill="#fff" opacity="0.44"/><circle cx="36.5" cy="719.26" r="1.92" fill="#ff8d8b" opacity="0.18"/><circle cx="62.79" cy="245.08" r="1.97" fill="#ff8d8b" opacity="0.18"/><circle cx="260.75" cy="604.79" r="1.58" fill="#fff" opacity="0.54"/><circle cx="449.03" cy="882.9" r="1.95" fill="#fff" opacity="0.48"/><circle cx="1517.92" cy="41.98" r="1.91" fill="#ff8d8b" opacity="0.44"/><circle cx="901.21" cy="510.94" r="1.9" fill="#ff8d8b" opacity="0.35"/><circle cx="332.38" cy="149.81" r="1.91" fill="#ff8d8b" opacity="0.28"/><circle cx="1200.24" cy="801.86" r="1.78" fill="#ff8d8b" opacity="0.61"/><circle cx="1354.54" cy="427.22" r="0.9" fill="#ff8d8b" opacity="0.5"/><circle cx="1509.42" cy="332.16" r="2.24" fill="#ff8d8b" opacity="0.46"/><circle cx="1163.25" cy="850.74" r="2.31" fill="#ff8d8b" opacity="0.47"/><circle cx="419.34" cy="686.75" r="1.02" fill="#ff8d8b" opacity="0.23"/><circle cx="1384.69" cy="153.1" r="1.5" fill="#ff8d8b" opacity="0.52"/><circle cx="1059.9" cy="36.38" r="0.76" fill="#ff8d8b" opacity="0.19"/><circle cx="1152.09" cy="732.28" r="1.48" fill="#ff8d8b" opacity="0.52"/><circle cx="1028.56" cy="876.39" r="2.07" fill="#ff8d8b" opacity="0.21"/><circle cx="283.57" cy="148.95" r="0.76" fill="#ff8d8b" opacity="0.47"/><circle cx="1158.32" cy="395.93" r="1.4" fill="#ff8d8b" opacity="0.22"/><circle cx="678.65" cy="874.8" r="1.05" fill="#ff8d8b" opacity="0.47"/><circle cx="805.48" cy="794.12" r="1.13" fill="#ff8d8b" opacity="0.46"/><circle cx="1135.59" cy="196.91" r="1.02" fill="#ff8d8b" opacity="0.29"/><circle cx="1070.13" cy="282.97" r="2.16" fill="#ff8d8b" opacity="0.36"/><circle cx="1042.98" cy="629.2" r="1.38" fill="#ff8d8b" opacity="0.24"/><circle cx="993.35" cy="174.4" r="1.53" fill="#ff8d8b" opacity="0.19"/><circle cx="1355.29" cy="423.52" r="2.4" fill="#ff8d8b" opacity="0.58"/><circle cx="108.74" cy="567.51" r="1.67" fill="#ff8d8b" opacity="0.48"/><circle cx="1460.64" cy="686.97" r="1.8" fill="#ff8d8b" opacity="0.34"/><circle cx="1070.84" cy="337.7" r="1.6" fill="#ff8d8b" opacity="0.51"/><circle cx="1315.77" cy="301.5" r="1.95" fill="#ff8d8b" opacity="0.34"/><circle cx="890.13" cy="379.38" r="1.73" fill="#ff8d8b" opacity="0.26"/><circle cx="858.31" cy="452.88" r="1.3" fill="#fff" opacity="0.32"/><circle cx="864.27" cy="67.37" r="1.27" fill="#ff8d8b" opacity="0.18"/><circle cx="542.78" cy="752.44" r="0.98" fill="#ff8d8b" opacity="0.59"/><circle cx="355.08" cy="633.37" r="2.35" fill="#ff8d8b" opacity="0.46"/><circle cx="236.31" cy="258.48" r="1.03" fill="#ff8d8b" opacity="0.47"/><circle cx="129.03" cy="193.12" r="1.69" fill="#ff8d8b" opacity="0.27"/><circle cx="1406.76" cy="184.27" r="1.68" fill="#fff" opacity="0.16"/><circle cx="72.36" cy="656.22" r="1.56" fill="#fff" opacity="0.56"/><circle cx="179.62" cy="10.35" r="0.82" fill="#ff8d8b" opacity="0.17"/><circle cx="859.29" cy="293.59" r="0.89" fill="#ff8d8b" opacity="0.38"/><circle cx="1379.42" cy="689.8" r="1.01" fill="#ff8d8b" opacity="0.57"/><circle cx="302.79" cy="268.55" r="2.28" fill="#ff8d8b" opacity="0.35"/><circle cx="250.98" cy="339.94" r="1.23" fill="#fff" opacity="0.21"/><circle cx="204.81" cy="811.22" r="1.08" fill="#ff8d8b" opacity="0.56"/><circle cx="569.56" cy="47.56" r="1.23" fill="#ff8d8b" opacity="0.2"/><circle cx="253.28" cy="234.08" r="0.98" fill="#ff8d8b" opacity="0.33"/><circle cx="998.87" cy="108.77" r="0.7" fill="#fff" opacity="0.4"/><circle cx="614.71" cy="747.62" r="1.84" fill="#ff8d8b" opacity="0.57"/><circle cx="980.9" cy="837.6" r="1.34" fill="#ff8d8b" opacity="0.26"/><circle cx="822.72" cy="299.71" r="1.52" fill="#ff8d8b" opacity="0.41"/><circle cx="41.58" cy="178.21" r="2.32" fill="#ff8d8b" opacity="0.48"/><circle cx="1237.35" cy="342.66" r="1.72" fill="#ff8d8b" opacity="0.48"/><circle cx="1528.15" cy="419.7" r="0.87" fill="#ff8d8b" opacity="0.19"/><circle cx="334.99" cy="490.78" r="0.9" fill="#ff8d8b" opacity="0.5"/><circle cx="1331.15" cy="434.01" r="0.9" fill="#ff8d8b" opacity="0.52"/><circle cx="195.41" cy="393.4" r="2.38" fill="#ff8d8b" opacity="0.23"/><circle cx="509.68" cy="215.84" r="1.96" fill="#ff8d8b" opacity="0.24"/><circle cx="1354.95" cy="880.2" r="0.77" fill="#ff8d8b" opacity="0.36"/><circle cx="438.92" cy="577.4" r="1.52" fill="#ff8d8b" opacity="0.5"/><circle cx="482.11" cy="821.05" r="1.23" fill="#ff8d8b" opacity="0.25"/><circle cx="412.75" cy="140.97" r="1.5" fill="#ff8d8b" opacity="0.25"/><circle cx="1019.55" cy="780.41" r="2.29" fill="#ff8d8b" opacity="0.33"/><circle cx="705.6" cy="175.73" r="0.93" fill="#ff8d8b" opacity="0.3"/><circle cx="1092.13" cy="139.57" r="1.08" fill="#ff8d8b" opacity="0.4"/><circle cx="1454.91" cy="105.99" r="2.26" fill="#ff8d8b" opacity="0.5"/><circle cx="1230.05" cy="247.25" r="0.89" fill="#fff" opacity="0.35"/><circle cx="408.84" cy="75.19" r="1.17" fill="#ff8d8b" opacity="0.36"/><circle cx="31.47" cy="162.13" r="0.74" fill="#ff8d8b" opacity="0.32"/><circle cx="695.59" cy="485.8" r="1.33" fill="#ff8d8b" opacity="0.44"/><circle cx="1505.17" cy="137.72" r="1.79" fill="#ff8d8b" opacity="0.53"/><circle cx="720.1" cy="523.16" r="1.92" fill="#ff8d8b" opacity="0.29"/><circle cx="347.91" cy="485.44" r="1.92" fill="#fff" opacity="0.27"/><circle cx="1055.68" cy="9.63" r="1.41" fill="#ff8d8b" opacity="0.22"/>
<g>
    <circle cx="1350" cy="470" r="3.6" fill="#ff8d8b"/>
    <path d="M1350 470 L1436 560 h62" fill="none" stroke="#ff8d8b" stroke-width="1.5" opacity=".72"/>
    <text x="1504" y="564" font-family="ui-monospace, 'IBM Plex Mono', 'SFMono-Regular', Menlo, monospace" font-size="12" letter-spacing="1.8" fill="#ff8d8b" opacity=".9" text-anchor="start">DELIVERED</text>
  </g>
<g>
    <rect x="676" y="116" width="232" height="112" rx="4" fill="#12060a" opacity=".55"/>
    <rect x="676" y="116" width="232" height="112" rx="4" fill="none" stroke="#ee2f2e" stroke-width="1.5" opacity=".5"/>
    <path d="M676 130 V116 H690" fill="none" stroke="#ff8d8b" stroke-width="2.6" opacity=".9"/>
    <path d="M908 214 V228 H894" fill="none" stroke="#ff8d8b" stroke-width="2.6" opacity=".9"/>
    <text x="688" y="137" font-family="ui-monospace, 'IBM Plex Mono', 'SFMono-Regular', Menlo, monospace" font-size="11.5" letter-spacing="2.4" fill="#fff" opacity=".92">FLEET</text>
    <line x1="686" y1="144" x2="898" y2="144" stroke="#ee2f2e" stroke-width="1" opacity=".45"/>
    <text x="688" y="156" font-family="ui-monospace, 'IBM Plex Mono', 'SFMono-Regular', Menlo, monospace" font-size="12.5" letter-spacing="1.6" fill="#ff8d8b" opacity=".86">ETA</text>
      <rect x="830" y="147" width="66" height="5" rx="2.5" fill="#ee2f2e" opacity=".2"/>
      <rect x="830" y="147" width="48.36" height="5" rx="2.5" fill="#ee2f2e" opacity=".92"/><text x="688" y="182" font-family="ui-monospace, 'IBM Plex Mono', 'SFMono-Regular', Menlo, monospace" font-size="12.5" letter-spacing="1.6" fill="#ff8d8b" opacity=".86">ROUTE</text>
      <rect x="830" y="173" width="66" height="5" rx="2.5" fill="#ee2f2e" opacity=".2"/>
      <rect x="830" y="173" width="44.37" height="5" rx="2.5" fill="#ee2f2e" opacity=".92"/><text x="688" y="208" font-family="ui-monospace, 'IBM Plex Mono', 'SFMono-Regular', Menlo, monospace" font-size="12.5" letter-spacing="1.6" fill="#ff8d8b" opacity=".86">POD</text>
      <rect x="830" y="199" width="66" height="5" rx="2.5" fill="#ee2f2e" opacity=".2"/>
      <rect x="830" y="199" width="44.24" height="5" rx="2.5" fill="#ee2f2e" opacity=".92"/>
  </g>
<g>
    <path d="M98 40 H40 V98" fill="none" stroke="#ee2f2e" stroke-width="2.4" opacity=".62" stroke-linecap="square"/><path d="M1502 40 H1560 V98" fill="none" stroke="#ee2f2e" stroke-width="2.4" opacity=".62" stroke-linecap="square"/><path d="M98 860 H40 V802" fill="none" stroke="#ee2f2e" stroke-width="2.4" opacity=".62" stroke-linecap="square"/><path d="M1502 860 H1560 V802" fill="none" stroke="#ee2f2e" stroke-width="2.4" opacity=".62" stroke-linecap="square"/>
    <line x1="774" y1="40" x2="826" y2="40" stroke="#ee2f2e" stroke-width="2" opacity=".4"/><line x1="774" y1="860" x2="826" y2="860" stroke="#ee2f2e" stroke-width="2" opacity=".4"/>
    <line x1="1560" y1="424" x2="1560" y2="476" stroke="#ee2f2e" stroke-width="2" opacity=".4"/>
  </g>
<path d="M0 0H1600M0 4H1600M0 8H1600M0 12H1600M0 16H1600M0 20H1600M0 24H1600M0 28H1600M0 32H1600M0 36H1600M0 40H1600M0 44H1600M0 48H1600M0 52H1600M0 56H1600M0 60H1600M0 64H1600M0 68H1600M0 72H1600M0 76H1600M0 80H1600M0 84H1600M0 88H1600M0 92H1600M0 96H1600M0 100H1600M0 104H1600M0 108H1600M0 112H1600M0 116H1600M0 120H1600M0 124H1600M0 128H1600M0 132H1600M0 136H1600M0 140H1600M0 144H1600M0 148H1600M0 152H1600M0 156H1600M0 160H1600M0 164H1600M0 168H1600M0 172H1600M0 176H1600M0 180H1600M0 184H1600M0 188H1600M0 192H1600M0 196H1600M0 200H1600M0 204H1600M0 208H1600M0 212H1600M0 216H1600M0 220H1600M0 224H1600M0 228H1600M0 232H1600M0 236H1600M0 240H1600M0 244H1600M0 248H1600M0 252H1600M0 256H1600M0 260H1600M0 264H1600M0 268H1600M0 272H1600M0 276H1600M0 280H1600M0 284H1600M0 288H1600M0 292H1600M0 296H1600M0 300H1600M0 304H1600M0 308H1600M0 312H1600M0 316H1600M0 320H1600M0 324H1600M0 328H1600M0 332H1600M0 336H1600M0 340H1600M0 344H1600M0 348H1600M0 352H1600M0 356H1600M0 360H1600M0 364H1600M0 368H1600M0 372H1600M0 376H1600M0 380H1600M0 384H1600M0 388H1600M0 392H1600M0 396H1600M0 400H1600M0 404H1600M0 408H1600M0 412H1600M0 416H1600M0 420H1600M0 424H1600M0 428H1600M0 432H1600M0 436H1600M0 440H1600M0 444H1600M0 448H1600M0 452H1600M0 456H1600M0 460H1600M0 464H1600M0 468H1600M0 472H1600M0 476H1600M0 480H1600M0 484H1600M0 488H1600M0 492H1600M0 496H1600M0 500H1600M0 504H1600M0 508H1600M0 512H1600M0 516H1600M0 520H1600M0 524H1600M0 528H1600M0 532H1600M0 536H1600M0 540H1600M0 544H1600M0 548H1600M0 552H1600M0 556H1600M0 560H1600M0 564H1600M0 568H1600M0 572H1600M0 576H1600M0 580H1600M0 584H1600M0 588H1600M0 592H1600M0 596H1600M0 600H1600M0 604H1600M0 608H1600M0 612H1600M0 616H1600M0 620H1600M0 624H1600M0 628H1600M0 632H1600M0 636H1600M0 640H1600M0 644H1600M0 648H1600M0 652H1600M0 656H1600M0 660H1600M0 664H1600M0 668H1600M0 672H1600M0 676H1600M0 680H1600M0 684H1600M0 688H1600M0 692H1600M0 696H1600M0 700H1600M0 704H1600M0 708H1600M0 712H1600M0 716H1600M0 720H1600M0 724H1600M0 728H1600M0 732H1600M0 736H1600M0 740H1600M0 744H1600M0 748H1600M0 752H1600M0 756H1600M0 760H1600M0 764H1600M0 768H1600M0 772H1600M0 776H1600M0 780H1600M0 784H1600M0 788H1600M0 792H1600M0 796H1600M0 800H1600M0 804H1600M0 808H1600M0 812H1600M0 816H1600M0 820H1600M0 824H1600M0 828H1600M0 832H1600M0 836H1600M0 840H1600M0 844H1600M0 848H1600M0 852H1600M0 856H1600M0 860H1600M0 864H1600M0 868H1600M0 872H1600M0 876H1600M0 880H1600M0 884H1600M0 888H1600M0 892H1600M0 896H1600" stroke="#000" stroke-width="1.4" opacity=".17" fill="none"/>
<rect width="1600" height="900" fill="url(#vign-logistics)"/>
</svg>
