<svg width="68" height="65" viewBox="0 0 68 65" fill="none" xmlns="http://www.w3.org/2000/svg">
<path d="M9.84227 13.2423V3.39611C9.84227 2.94419 10.2109 2.5756 10.6628 2.5756C11.1147 2.5756 11.4833 2.94419 11.4833 3.39611V11.3865C16.916 4.81601 25.0702 0.934814 33.6372 0.934814C49.4739 0.934814 62.3552 13.8161 62.3552 29.6528C62.3552 38.1271 58.6308 46.1369 52.1472 51.6114C51.9933 51.7428 51.8042 51.8069 51.6151 51.8069C51.3843 51.8069 51.1472 51.7076 50.9901 51.5185C50.6952 51.1723 50.7433 50.6563 51.0895 50.3614C57.2016 45.1947 60.7141 37.6434 60.7141 29.6532C60.7141 14.7207 48.5697 2.57627 33.6371 2.57627C25.5634 2.57627 17.8742 6.2269 12.7559 12.4224H20.5091C20.961 12.4224 21.3296 12.791 21.3296 13.243C21.3296 13.6949 20.961 14.0635 20.5091 14.0635H10.6629C10.211 14.0635 9.84227 13.6942 9.84227 13.2423ZM17.2269 56.7295H0.816608C0.364685 56.7295 -0.00390625 57.0981 -0.00390625 57.5501C-0.00390625 58.002 0.364685 58.3706 0.816608 58.3706H17.2269C17.6788 58.3706 18.0474 58.002 18.0474 57.5501C18.0474 57.0981 17.6788 56.7295 17.2269 56.7295ZM67.2143 57.861C67.2976 57.6654 67.2976 57.4347 67.2143 57.2359C67.1726 57.1366 67.1149 57.0468 67.0348 56.9667L60.4707 50.4026C60.1502 50.0821 59.6342 50.0821 59.3136 50.4026C58.9931 50.7231 58.9931 51.2391 59.3136 51.5597L64.4803 56.7296H33.6371C18.7046 56.7296 6.56017 44.5851 6.56017 29.6526C6.56017 26.361 7.1435 23.1462 8.30056 20.0953C8.46402 19.669 8.24287 19.2011 7.8262 19.0375C7.39992 18.8741 6.93201 19.0856 6.76848 19.5119C5.54411 22.7523 4.91912 26.1562 4.91912 29.6526C4.91912 45.4894 17.8004 58.3706 33.6371 58.3706H64.4803L59.32 63.5309C58.9994 63.8514 58.9994 64.3674 59.32 64.688C59.4738 64.8515 59.6789 64.9348 59.8937 64.9348C60.1084 64.9348 60.3136 64.8515 60.477 64.6976L67.0411 58.1335C67.1148 58.0598 67.1726 57.9603 67.2143 57.861ZM50.868 29.6525C50.868 39.1524 43.1372 46.8833 33.6372 46.8833C24.1372 46.8833 16.4064 39.1525 16.4064 29.6525C16.4064 20.1525 24.1372 12.4217 33.6372 12.4217C43.1372 12.4217 50.868 20.1525 50.868 29.6525ZM49.1853 30.473H48.4064C47.9545 30.473 47.5859 30.1044 47.5859 29.6525C47.5859 29.2006 47.9545 28.832 48.4064 28.832H49.1853C48.7686 20.8896 42.4 14.5214 34.4579 14.1046V14.8834C34.4579 15.3353 34.0893 15.7039 33.6373 15.7039C33.1854 15.7039 32.8168 15.3353 32.8168 14.8834V14.1046C24.8745 14.5212 18.5062 20.8898 18.0894 28.832H18.8683C19.3202 28.832 19.6888 29.2006 19.6888 29.6525C19.6888 30.1044 19.3202 30.473 18.8683 30.473H18.0894C18.5093 38.4153 24.8747 44.7836 32.8168 45.2004V44.4216C32.8168 43.9696 33.1854 43.601 33.6373 43.601C34.0893 43.601 34.4579 43.9696 34.4579 44.4216V45.2004C42.4002 44.7837 48.7685 38.4152 49.1853 30.473ZM34.4579 29.3159V21.4473C34.4579 20.9954 34.0893 20.6268 33.6373 20.6268C33.1854 20.6268 32.8168 20.9954 32.8168 21.4473V29.6525C32.8168 29.8736 32.9066 30.0788 33.054 30.2358L39.6181 36.7999C39.7816 36.9538 39.9867 37.0371 40.2015 37.0371C40.4162 37.0371 40.6213 36.9538 40.7848 36.7999C41.1053 36.4794 41.1053 35.9634 40.7848 35.6428L34.4579 29.3159Z" fill="#EE2F2E"/>
</svg>
